<svg width="36" height="36" viewBox="0 0 36 36" fill="none" xmlns="http://www.w3.org/2000/svg">
<path d="M28.2515 4.86084C28.6535 4.73017 29.0843 4.71311 29.4956 4.81104C29.9068 4.90902 30.2835 5.11865 30.5835 5.4165H30.5825C30.8845 5.71461 31.0963 6.09196 31.1919 6.50537C31.2874 6.91824 31.2625 7.34953 31.1226 7.74951L23.6987 29.6353C23.5628 30.0687 23.2997 30.4514 22.9438 30.7339C22.5872 31.017 22.1529 31.1868 21.6987 31.2202H21.5396C21.116 31.2215 20.7006 31.1045 20.3394 30.8833C19.9779 30.6619 19.685 30.3446 19.4937 29.9663L19.4927 29.9653L15.0112 20.8677L5.94482 16.3872L5.94189 16.3862C5.54136 16.1777 5.21196 15.8543 4.99463 15.4585C4.77736 15.0627 4.68215 14.6115 4.72119 14.1616C4.76024 13.7119 4.93126 13.2836 5.21338 12.9312C5.49529 12.5791 5.8754 12.3177 6.30518 12.1812L28.2505 4.86182L28.2515 4.86084ZM17.5366 20.229L21.6206 28.3989L27.7329 10.0327L17.5366 20.229ZM7.60107 14.3931L15.77 18.4624L25.9663 8.26611L7.60107 14.3931Z" fill="white" stroke="white" stroke-width="0.25"/>
</svg>
