<svg width="36" height="36" viewBox="0 0 36 36" fill="none" xmlns="http://www.w3.org/2000/svg">
<path d="M12 13.5H13.5M19.5 13.5H24M12 19.5H19.5M12 6H27C28.1935 6 29.3381 6.47411 30.182 7.31802C31.0259 8.16193 31.5 9.30653 31.5 10.5V22.5C31.5 23.3655 31.2555 24.174 30.8325 24.8595M27 27H19.5L12 31.5V27H9C7.80653 27 6.66193 26.5259 5.81802 25.682C4.97411 24.8381 4.5 23.6935 4.5 22.5V10.5C4.5 8.8725 5.364 7.446 6.6585 6.657M4.5 4.5L31.5 31.5" stroke="#A7A7A7" stroke-width="3" stroke-linecap="round" stroke-linejoin="round"/>
</svg>
