<svg width="40" height="40" viewBox="0 0 40 40" fill="none" xmlns="http://www.w3.org/2000/svg">
<path d="M5 35.0001V7.77783H34.4444V29.4445H12.2222L5 35.0001Z" fill="white"/>
<path d="M35.8333 8.33331V28.3333C35.8333 28.9963 35.5699 29.6322 35.1011 30.1011C34.6323 30.5699 33.9964 30.8333 33.3333 30.8333H12.5521L7.45834 35.2333L7.44428 35.2442C6.99426 35.6256 6.42322 35.8344 5.83334 35.8333C5.46608 35.8327 5.10342 35.7516 4.77084 35.5958C4.33938 35.3964 3.97442 35.077 3.71953 34.6759C3.46463 34.2747 3.33057 33.8086 3.33334 33.3333V8.33331C3.33334 7.67027 3.59673 7.03438 4.06557 6.56554C4.53441 6.0967 5.1703 5.83331 5.83334 5.83331H33.3333C33.9964 5.83331 34.6323 6.0967 35.1011 6.56554C35.5699 7.03438 35.8333 7.67027 35.8333 8.33331ZM33.3333 8.33331H5.83334V33.3333L11.2662 28.6458C11.492 28.4466 11.7822 28.3356 12.0833 28.3333H33.3333V8.33331Z" fill="#FF6F00"/>
<path d="M22.09 14.2674C21.884 14.5757 21.774 14.9382 21.774 15.3091C21.774 15.8064 21.9716 16.2833 22.3232 16.6349C22.6748 16.9865 23.1517 17.1841 23.649 17.1841C24.0198 17.1841 24.3824 17.0741 24.6907 16.8681C24.999 16.6621 25.2394 16.3692 25.3813 16.0266C25.5232 15.684 25.5603 15.307 25.488 14.9433C25.4156 14.5796 25.2371 14.2455 24.9748 13.9833C24.7126 13.721 24.3785 13.5425 24.0148 13.4701C23.6511 13.3978 23.2741 13.4349 22.9315 13.5768C22.5889 13.7187 22.296 13.959 22.09 14.2674Z" fill="#FF6F00"/>
<path d="M16.9824 16.8681C16.674 17.0741 16.3115 17.1841 15.9407 17.1841C15.4434 17.1841 14.9665 16.9865 14.6148 16.6349C14.2632 16.2833 14.0657 15.8064 14.0657 15.3091C14.0657 14.9382 14.1756 14.5757 14.3817 14.2674C14.5877 13.959 14.8805 13.7187 15.2231 13.5768C15.5658 13.4349 15.9428 13.3978 16.3065 13.4701C16.6702 13.5425 17.0043 13.721 17.2665 13.9833C17.5287 14.2455 17.7073 14.5796 17.7796 14.9433C17.852 15.307 17.8149 15.684 17.6729 16.0266C17.531 16.3692 17.2907 16.6621 16.9824 16.8681Z" fill="#FF6F00"/>
<path d="M27.2647 20.2817V20.2825C27.6239 19.7492 28.3473 19.6071 28.8818 19.9651C29.417 20.3237 29.5601 21.0485 29.2016 21.5837L28.2323 20.9343C29.1461 21.5464 29.1982 21.582 29.2008 21.5846L29.2 21.5862L29.1934 21.596C29.1902 21.6007 29.1864 21.606 29.182 21.6122C29.1731 21.625 29.1616 21.6414 29.1479 21.6602C29.1203 21.6979 29.0831 21.7474 29.0356 21.8067C28.9405 21.9255 28.8044 22.0845 28.6238 22.2698C28.2626 22.6403 27.7221 23.1165 26.9758 23.5873C25.4734 24.5353 23.1751 25.4347 19.899 25.4347C14.6731 25.4347 11.5805 23.0528 10.5964 21.5837C10.2379 21.0485 10.381 20.3237 10.9163 19.9651C11.4515 19.6065 12.1763 19.7497 12.5349 20.2849C13.0394 21.0381 15.3642 23.1007 19.899 23.1007C22.7232 23.1007 24.5916 22.3334 25.7307 21.6147C26.3052 21.2522 26.7049 20.895 26.953 20.6406C27.0769 20.5135 27.1626 20.4119 27.2135 20.3484C27.2389 20.3166 27.2558 20.2944 27.2639 20.2833L27.2647 20.2817Z" fill="#FF6F00"/>
</svg>
