<svg width="36" height="36" viewBox="0 0 36 36" fill="none" xmlns="http://www.w3.org/2000/svg">
<path d="M18 20.1002L10.65 27.4502C10.375 27.7252 10.025 27.8627 9.59995 27.8627C9.17495 27.8627 8.82495 27.7252 8.54995 27.4502C8.27495 27.1752 8.13745 26.8252 8.13745 26.4002C8.13745 25.9752 8.27495 25.6252 8.54995 25.3502L15.9 18.0002L8.54995 10.6502C8.27495 10.3752 8.13745 10.0252 8.13745 9.6002C8.13745 9.1752 8.27495 8.82519 8.54995 8.55019C8.82495 8.27519 9.17495 8.1377 9.59995 8.1377C10.025 8.1377 10.375 8.27519 10.65 8.55019L18 15.9002L25.35 8.55019C25.625 8.27519 25.975 8.1377 26.4 8.1377C26.825 8.1377 27.1749 8.27519 27.4499 8.55019C27.7249 8.82519 27.8625 9.1752 27.8625 9.6002C27.8625 10.0252 27.7249 10.3752 27.4499 10.6502L20.1 18.0002L27.4499 25.3502C27.7249 25.6252 27.8625 25.9752 27.8625 26.4002C27.8625 26.8252 27.7249 27.1752 27.4499 27.4502C27.1749 27.7252 26.825 27.8627 26.4 27.8627C25.975 27.8627 25.625 27.7252 25.35 27.4502L18 20.1002Z" fill="#A7A7A7"/>
</svg>
