<svg width="24" height="24" viewBox="0 0 24 24" fill="none" xmlns="http://www.w3.org/2000/svg">
<path d="M18.8342 3.24121C19.1023 3.15406 19.3891 3.14177 19.6633 3.20703C19.9373 3.27226 20.188 3.41205 20.3879 3.61035C20.5892 3.80908 20.7304 4.06132 20.7942 4.33691C20.8578 4.61206 20.8415 4.89944 20.7483 5.16602L15.7991 19.7568L15.7981 19.7559C15.7075 20.0451 15.5326 20.3008 15.2952 20.4893C15.0574 20.6779 14.7687 20.7912 14.4661 20.8135H14.3596C14.0772 20.8144 13.7997 20.7364 13.5588 20.5889C13.318 20.4413 13.1228 20.2296 12.9954 19.9775V19.9766L10.0081 13.9121L3.96313 10.9248L3.96118 10.9238C3.69422 10.7848 3.47421 10.5695 3.32935 10.3057C3.1846 10.0419 3.12174 9.74117 3.14771 9.44141C3.17374 9.14144 3.28762 8.85514 3.47583 8.62012C3.66373 8.38561 3.91701 8.21212 4.20337 8.12109L18.8333 3.24121H18.8342ZM11.6907 13.4863L14.4133 18.9326L18.4885 6.68848L11.6907 13.4863ZM5.06665 9.59473L10.5129 12.3086L17.3088 5.51172L5.06665 9.59473Z" fill="white" stroke="white" stroke-width="0.166667"/>
</svg>
